<?xml version="1.0" encoding="utf-8"?>
<!-- Generator: Adobe Illustrator 23.0.1, SVG Export Plug-In . SVG Version: 6.00 Build 0)  -->
<svg version="1.1" id="Layer_1" xmlns="http://www.w3.org/2000/svg" xmlns:xlink="http://www.w3.org/1999/xlink" x="0px" y="0px"
	 viewBox="0 0 1500 969" style="enable-background:new 0 0 1500 969;" xml:space="preserve">
<style type="text/css">
	.st0{fill:#B87333;}
	.st1{fill:#909191;}
	.st2{fill:#EEFFFF;}
	.st3{fill:#727575;}
	.st4{fill:#FDFFFF;}
	.st5{fill:#FFFFFF;}
</style>
<rect y="693.6" class="st0" width="1500" height="179.5"/>
<g id="XMLID_1_">
	<g>
		<path class="st1" d="M941.6,639.2H740.1H412.5c-30.2,0-54.7-24.5-54.7-54.7V118.1c0-30.2,24.5-54.7,54.7-54.7h882.8
			c30.2,0,54.7,24.5,54.7,54.7v466.4c0,30.2-24.5,54.7-54.7,54.7H941.6z M854.3,561.1c7.2-0.5,11.4-4.9,12-13.8
			C858.7,549.2,854.7,553.8,854.3,561.1z M875.8,566.7c-5-4.9-11.7-5.1-19.6-1.7c-0.6,0.3-1.4,0.2-2-0.1
			c-28.4-13.6-34.2,32.7-9.7,44.1c0.6,0.3,1.4,0.4,2,0c3.2-2.4,15.2-2.3,18.5,0.1c0.4,0.3,1.1,0.3,1.6,0.1c4.4-1.3,8.5-5.4,12-14.4
			c0.4-1,0.1-2.1-0.8-2.7c-7.3-5.6-9.1-14.3-1.9-22.1C876.7,569.1,876.8,567.6,875.8,566.7z M1307.4,497.4V147.6
			c0-19.1-15.5-34.7-34.7-34.7H442c-19.1,0-34.7,15.5-34.7,34.7v349.8c0,19.1,15.5,34.7,34.7,34.7h830.7
			C1291.8,532,1307.4,516.5,1307.4,497.4z"/>
		<path class="st2" d="M878.5,594.8c-3.5,9-7.6,13.1-12,14.4c-0.5,0.2-1.2,0.2-1.6-0.1c-3.3-2.4-15.3-2.5-18.5-0.1
			c-0.5,0.4-1.4,0.3-2,0c-24.5-11.4-18.7-57.7,9.7-44.1c0.6,0.3,1.4,0.3,2,0.1c7.9-3.4,14.6-3.2,19.6,1.7c0.9,0.9,0.9,2.4,0,3.3
			c-7.2,7.8-5.4,16.5,1.9,22.1C878.6,592.7,878.9,593.9,878.5,594.8z"/>
		<path class="st3" d="M740.1,697.7v-58.5h201.4v64.4c0,4.8,3,9.4,8,12.2l70.7,40.2c15.3,8.7,7.3,27.4-11.6,27.4h-333
			c-18.1,0-26.6-17.4-12.9-26.6l70.7-47.7C737.7,706.2,740.1,702.1,740.1,697.7z"/>
		<path class="st4" d="M1307.4,147.6v349.8c0,19.1-15.5,34.7-34.7,34.7H442c-19.1,0-34.7-15.5-34.7-34.7V147.6
			c0-19.1,15.5-34.7,34.7-34.7h830.7C1291.8,112.9,1307.4,128.5,1307.4,147.6z"/>
		<path class="st5" d="M866.3,547.4c-0.6,8.9-4.8,13.2-12,13.8C854.7,553.8,858.7,549.2,866.3,547.4z"/>
	</g>
	<g>
	</g>
</g>
</svg>
