<?xml version="1.0" encoding="utf-8"?>
<!-- Generator: Adobe Illustrator 23.0.1, SVG Export Plug-In . SVG Version: 6.00 Build 0)  -->
<svg version="1.1" id="Layer_1" xmlns="http://www.w3.org/2000/svg" xmlns:xlink="http://www.w3.org/1999/xlink" x="0px" y="0px"
	 viewBox="0 0 1920 400" style="enable-background:new 0 0 1920 400;" xml:space="preserve">
<style type="text/css">
	.st0{fill:#5C8DE5;}
	.st1{fill:#897676;}
	.st2{fill:#3A3A3A;}
	.st3{fill:#A77D46;}
	.st4{opacity:0.2;}
	.st5{fill:#95B9C7;}
	.st6{fill:#C7A395;}
	.st7{fill:#6F4E37;}
	.st8{fill:none;}
	.st9{fill:#8A4117;}
	.st10{fill:#FFFFFF;}
	.st11{fill:#5F6060;}
</style>
<rect x="97.8" y="242.1" transform="matrix(0.9592 -0.2826 0.2826 0.9592 -66.4149 38.0832)" class="st0" width="2" height="14.3"/>
<rect x="95.6" y="241.1" transform="matrix(0.9592 -0.2826 0.2826 0.9592 -64.3434 37.1623)" class="st0" width="2" height="0.9"/>
<rect x="104" y="235" class="st1" width="7" height="20"/>
<rect x="104" y="236" class="st2" width="5" height="1"/>
<rect x="104" y="238" class="st2" width="5" height="1"/>
<rect x="104" y="240" class="st2" width="5" height="1"/>
<rect x="104" y="242" class="st2" width="5" height="1"/>
<rect x="104" y="244" class="st2" width="5" height="1"/>
<rect x="104" y="246" class="st2" width="5" height="1"/>
<rect x="104" y="248" class="st2" width="5" height="1"/>
<rect x="104" y="250" class="st2" width="5" height="1"/>
<rect x="104" y="252" class="st2" width="5" height="1"/>
<rect x="104" y="254" class="st2" width="5" height="1"/>
<rect x="121.8" y="238.2" transform="matrix(0.9621 0.2728 -0.2728 0.9621 72.1205 -24.1119)" class="st2" width="2" height="18.3"/>
<g>
	<polygon class="st3" points="1857,288 1857,318 1779,318 1779,400 1755,400 1755,318 1730,318 1730,400 1710,400 1710,318 212,318 
		212,400 192,400 192,318 167,318 167,400 143,400 143,318 63,318 63,288 	"/>
</g>
<rect x="192" y="318" class="st4" width="20" height="82"/>
<rect x="1710" y="318" class="st4" width="20" height="82"/>
<rect x="223" y="265" class="st5" width="142" height="23"/>
<rect x="212" y="242" class="st6" width="142" height="23"/>
<rect x="227" y="219" class="st7" width="142" height="23"/>
<line class="st8" x1="94" y1="244" x2="102.5" y2="288"/>
<polygon class="st9" points="94,258 102,287 124,287 131,258 "/>
<path class="st9" d="M130.5,257h-36c-0.8,0-1.5-0.7-1.5-1.5l0,0c0-0.8,0.7-1.5,1.5-1.5h36c0.8,0,1.5,0.7,1.5,1.5l0,0
	C132,256.3,131.3,257,130.5,257z"/>
<path class="st9" d="M123.9,289h-21.8c-0.3,0-0.5-0.2-0.5-0.5v-1c0-0.3,0.2-0.5,0.5-0.5h21.8c0.3,0,0.5,0.2,0.5,0.5v1
	C124.4,288.8,124.2,289,123.9,289z"/>
<path class="st10" d="M124,287L124,287z"/>
<rect x="124.6" y="236.9" transform="matrix(0.9621 0.2728 -0.2728 0.9621 69.5662 -25.2631)" class="st2" width="2" height="1.2"/>
<path class="st11" d="M144.8,289h46.4c1.1,0,2-0.9,2-2l0,0c0-2.8-2.2-5-5-5h-40.1c-2.7,0-4.9,2.2-4.9,4.9v0.6
	C143.2,288.3,143.9,289,144.8,289z"/>
<path class="st11" d="M150.8,286h34.4c1.1,0,2-0.9,2-2l0,0c0-2.8-2.2-5-5-5h-28.1c-2.7,0-4.9,2.2-4.9,4.9v0.6
	C149.2,285.3,149.9,286,150.8,286z"/>
<circle class="st11" cx="168.7" cy="277.5" r="4.5"/>
<path class="st11" d="M165.2,273L165.2,273c0.9-0.7,1.1-1.9,0.4-2.8L150,249.4c-0.7-0.9-1.9-1.1-2.8-0.4l0,0
	c-0.9,0.7-1.1,1.9-0.4,2.8l15.6,20.8C163.1,273.5,164.4,273.6,165.2,273z"/>
<path class="st11" d="M150.6,248L150.6,248c0.8,0.8,2,0.8,2.8,0l14.5-14.5c0.8-0.8,0.8-2,0-2.8l0,0c-0.8-0.8-2-0.8-2.8,0l-14.5,14.5
	C149.9,246,149.9,247.2,150.6,248z"/>
<path class="st11" d="M180.7,241.5L195,239c-0.2-1-0.5-2-0.9-3c-3-7.4-11.6-10.9-18.9-7.9c-7.4,3-10.9,11.6-7.9,18.9
	c0.4,1,1,2,1.6,2.9L180.7,241.5z"/>
<circle class="st11" cx="172.7" cy="228.5" r="3.5"/>
</svg>
