<?xml version="1.0" encoding="utf-8"?>
<!-- Generator: Adobe Illustrator 22.1.0, SVG Export Plug-In . SVG Version: 6.00 Build 0)  -->
<svg version="1.1" id="Layer_1" xmlns="http://www.w3.org/2000/svg" xmlns:xlink="http://www.w3.org/1999/xlink" x="0px" y="0px"
	 viewBox="0 0 300 100" style="enable-background:new 0 0 300 100;" xml:space="preserve">
<style type="text/css">
    @import url('https://fonts.googleapis.com/css?family=Comfortaa');
	.st0{fill:#4C4C4C;}
	.st1{fill:#13D19F;}
	.st2{fill:#EBEBEC;}
	.st3{fill:none;}
	.st4{font-family: 'Comfortaa', cursive;}
	.st5{font-size:60px;font-family: 'Comfortaa', cursive;}
	.st6{font-size:31.5px;font-family: 'Comfortaa', cursive;}
</style>
<path class="st0" d="M119,68H82.8c-1.1,0-2-0.9-2-2v-1c0-1.1,0.9-2,2-2H119c1.1,0,2,0.9,2,2v1C121,67.1,120.1,68,119,68z"/>
<rect x="53.6" y="23" class="st0" width="3.2" height="49.4"/>
<rect x="145.1" y="23" class="st0" width="3.2" height="49.4"/>
<circle class="st1" cx="129" cy="65.2" r="23.1"/>
<circle class="st2" cx="129" cy="65.2" r="19.1"/>
<circle class="st1" cx="73.9" cy="65.2" r="23.1"/>
<circle class="st2" cx="73.9" cy="65.2" r="19.1"/>
<path class="st0" d="M131.1,71.4c-1.2-3.4,0.5-7,3.9-8.3c2.5-0.9,5.2-0.2,6.9,1.6c-0.1-1.2-0.3-2.4-0.7-3.6
	c-2.4-6.6-9.6-10-16.2-7.6c-6.6,2.4-10,9.6-7.6,16.2c2.4,6.6,9.6,10,16.2,7.6c1.2-0.4,2.3-1,3.3-1.7C134.2,75.5,132,73.9,131.1,71.4
	z"/>
<path class="st0" d="M75.4,71.2c-1.1-3.4,0.8-7,4.2-8.1c2.5-0.8,5.2,0,6.8,1.9c0-1.2-0.2-2.4-0.6-3.6c-2.1-6.7-9.3-10.3-16-8.2
	c-6.7,2.1-10.3,9.3-8.2,16c2.1,6.7,9.3,10.3,16,8.2c1.2-0.4,2.3-0.9,3.3-1.6C78.4,75.4,76.2,73.7,75.4,71.2z"/>
<rect x="6.3" y="34.7" class="st3" width="43.2" height="66.7"/>
<text transform="matrix(1 0 0 1 6.3335 86.9658)" class="st4 st5">b</text>
<rect x="158.6" y="31.6" class="st3" width="135.4" height="66.7"/>
<text transform="matrix(1 0 0 1 158.627 83.8584)" class="st4 st5">king</text>
<text transform="matrix(1 0 0 1 58.6665 34.333)" class="st4 st6">store</text>
</svg>
