<?xml version="1.0" encoding="utf-8"?>
<!-- Generator: Adobe Illustrator 23.0.1, SVG Export Plug-In . SVG Version: 6.00 Build 0)  -->
<svg version="1.1" id="Layer_1" xmlns="http://www.w3.org/2000/svg" xmlns:xlink="http://www.w3.org/1999/xlink" x="0px" y="0px"
	 viewBox="0 0 1920 400" style="enable-background:new 0 0 1920 400;" xml:space="preserve">
<style type="text/css">
	.st0{fill:#FFA54F;}
	.st1{fill:#FFFFFF;}
	.st2{fill:#E9967A;}
	.st3{fill:#B87333;}
	.st4{fill:#8A4117;}
	.st5{fill:#FB654E;}
	.st6{fill:#C35817;}
	.st7{fill:#666362;}
	.st8{fill:#966F33;}
	.st9{fill:#D4A017;}
	.st10{fill:#7F525D;}
	.st11{fill:#538074;}
	.st12{fill:#827839;}
	.st13{fill:#AF7817;}
	.st14{fill:#C7A395;}
	.st15{fill:#786D5F;}
	.st16{fill:#C85A17;}
	.st17{fill:#7E3517;}
	.st18{fill:#FBB117;}
	.st19{fill:#CD7F32;}
	.st20{fill:#954535;}
	.st21{fill:#C19A6B;}
	.st22{fill:#95B9C7;}
	.st23{fill:#6F4E37;}
</style>
<g>
	<rect x="25" y="17" class="st0" width="1869" height="367"/>
</g>
<rect x="39" y="32" class="st1" width="580" height="338"/>
<rect x="636" y="32" class="st1" width="606" height="338"/>
<rect x="1258" y="32" class="st1" width="616" height="338"/>
<g>
	<rect x="38" y="135" class="st0" width="584" height="9"/>
</g>
<g>
	<rect x="37" y="254" class="st0" width="584" height="9"/>
</g>
<g>
	<rect x="636" y="254" class="st0" width="609" height="9"/>
</g>
<g>
	<rect x="634" y="135" class="st0" width="609" height="9"/>
</g>
<g>
	<rect x="1256" y="135" class="st0" width="618" height="9"/>
</g>
<g>
	<rect x="1257" y="254" class="st0" width="618" height="9"/>
</g>
<rect x="43" y="46" class="st2" width="23" height="89"/>
<rect x="68" y="46" class="st3" width="23" height="89"/>
<rect x="93" y="46" class="st4" width="23" height="89"/>
<rect x="118" y="46" class="st5" width="23" height="89"/>
<rect x="193" y="46" class="st6" width="23" height="89"/>
<rect x="218" y="46" class="st7" width="23" height="89"/>
<rect x="243" y="46" class="st8" width="23" height="89"/>
<rect x="318" y="46" class="st9" width="23" height="89"/>
<rect x="343" y="46" class="st2" width="23" height="89"/>
<rect x="368" y="46" class="st10" width="23" height="89"/>
<rect x="393" y="46" class="st11" width="23" height="89"/>
<rect x="418" y="46" class="st12" width="23" height="89"/>
<rect x="443" y="46" class="st13" width="23" height="89"/>
<rect x="468" y="46" class="st7" width="23" height="89"/>
<rect x="493" y="46" class="st14" width="23" height="89"/>
<rect x="518" y="46" class="st15" width="23" height="89"/>
<rect x="543" y="46" class="st14" width="23" height="89"/>
<rect x="68" y="165" class="st16" width="23" height="89"/>
<rect x="93" y="165" class="st17" width="23" height="89"/>
<rect x="118" y="165" class="st7" width="23" height="89"/>
<rect x="143" y="165" class="st11" width="23" height="89"/>
<rect x="168" y="165" class="st10" width="23" height="89"/>
<rect x="193" y="165" class="st14" width="23" height="89"/>
<rect x="218" y="165" class="st18" width="23" height="89"/>
<rect x="243" y="165" class="st3" width="23" height="89"/>
<rect x="268" y="165" class="st12" width="23" height="89"/>
<rect x="293" y="165" class="st15" width="23" height="89"/>
<rect x="318" y="165" class="st19" width="23" height="89"/>
<rect x="343" y="165" class="st20" width="23" height="89"/>
<rect x="368" y="165" class="st21" width="23" height="89"/>
<rect x="393" y="165" class="st4" width="23" height="89"/>
<rect x="468" y="165" class="st17" width="23" height="89"/>
<rect x="493" y="165" class="st8" width="23" height="89"/>
<rect x="518" y="165" class="st22" width="23" height="89"/>
<rect x="568" y="165" class="st23" width="23" height="89"/>
<rect x="593" y="165" class="st6" width="23" height="89"/>
<rect x="43" y="281" class="st4" width="23" height="89"/>
<rect x="143" y="281" class="st9" width="23" height="89"/>
<rect x="193" y="281" class="st20" width="23" height="89"/>
<rect x="218" y="281" class="st3" width="23" height="89"/>
<rect x="243" y="281" class="st21" width="23" height="89"/>
<rect x="268" y="281" class="st6" width="23" height="89"/>
<rect x="318" y="281" class="st9" width="23" height="89"/>
<rect x="343" y="281" class="st11" width="23" height="89"/>
<rect x="368" y="281" class="st10" width="23" height="89"/>
<rect x="393" y="281" class="st2" width="23" height="89"/>
<rect x="418" y="281" class="st15" width="23" height="89"/>
<rect x="443" y="281" class="st14" width="23" height="89"/>
<rect x="493" y="281" class="st8" width="23" height="89"/>
<rect x="518" y="281" class="st13" width="23" height="89"/>
<rect x="543" y="281" class="st12" width="23" height="89"/>
<rect x="641" y="165" class="st7" width="23" height="89"/>
<rect x="716" y="165" class="st14" width="23" height="89"/>
<rect x="741" y="165" class="st4" width="23" height="89"/>
<rect x="766" y="165" class="st19" width="23" height="89"/>
<rect x="791" y="165" class="st2" width="23" height="89"/>
<rect x="816" y="165" class="st13" width="23" height="89"/>
<rect x="841" y="165" class="st12" width="23" height="89"/>
<rect x="891" y="165" class="st20" width="23" height="89"/>
<rect x="916" y="165" class="st9" width="23" height="89"/>
<rect x="941" y="165" class="st6" width="23" height="89"/>
<rect x="966" y="165" class="st21" width="23" height="89"/>
<rect x="991" y="165" class="st11" width="23" height="89"/>
<rect x="1041" y="165" class="st3" width="23" height="89"/>
<rect x="1091" y="165" class="st4" width="23" height="89"/>
<rect x="1166" y="165" class="st8" width="23" height="89"/>
<rect x="1191" y="165" class="st15" width="23" height="89"/>
<rect x="666" y="281" class="st20" width="23" height="89"/>
<rect x="691" y="281" class="st19" width="23" height="89"/>
<rect x="716" y="281" class="st23" width="23" height="89"/>
<rect x="741" y="281" class="st9" width="23" height="89"/>
<rect x="766" y="281" class="st22" width="23" height="89"/>
<rect x="816" y="281" class="st15" width="23" height="89"/>
<rect x="891" y="281" class="st19" width="23" height="89"/>
<rect x="916" y="281" class="st4" width="23" height="89"/>
<rect x="941" y="281" class="st3" width="23" height="89"/>
<rect x="966" y="281" class="st14" width="23" height="89"/>
<rect x="991" y="281" class="st21" width="23" height="89"/>
<rect x="1016" y="281" class="st8" width="23" height="89"/>
<rect x="1041" y="281" class="st23" width="23" height="89"/>
<rect x="1066" y="281" class="st12" width="23" height="89"/>
<rect x="1091" y="281" class="st17" width="23" height="89"/>
<rect x="1116" y="281" class="st2" width="23" height="89"/>
<rect x="1191" y="281" class="st10" width="23" height="89"/>
<rect x="641" y="46" class="st6" width="23" height="89"/>
<rect x="666" y="46" class="st9" width="23" height="89"/>
<rect x="691" y="46" class="st4" width="23" height="89"/>
<rect x="716" y="46" class="st8" width="23" height="89"/>
<rect x="741" y="46" class="st17" width="23" height="89"/>
<rect x="766" y="46" class="st3" width="23" height="89"/>
<rect x="816" y="46" class="st10" width="23" height="89"/>
<rect x="841" y="46" class="st11" width="23" height="89"/>
<rect x="891" y="46" class="st12" width="23" height="89"/>
<rect x="916" y="46" class="st14" width="23" height="89"/>
<rect x="991" y="46" class="st15" width="23" height="89"/>
<rect x="1016" y="46" class="st2" width="23" height="89"/>
<rect x="1041" y="46" class="st13" width="23" height="89"/>
<rect x="1066" y="46" class="st18" width="23" height="89"/>
<rect x="1091" y="46" class="st23" width="23" height="89"/>
<rect x="1141" y="46" class="st7" width="23" height="89"/>
<rect x="1166" y="46" class="st20" width="23" height="89"/>
<rect x="1191" y="46" class="st21" width="23" height="89"/>
<rect x="1216" y="46" class="st4" width="23" height="89"/>
<rect x="1266" y="46" class="st9" width="23" height="89"/>
<rect x="1291" y="46" class="st3" width="23" height="89"/>
<rect x="1341" y="46" class="st13" width="23" height="89"/>
<rect x="1366" y="46" class="st20" width="23" height="89"/>
<rect x="1391" y="46" class="st3" width="23" height="89"/>
<rect x="1466" y="46" class="st11" width="23" height="89"/>
<rect x="1491" y="46" class="st10" width="23" height="89"/>
<rect x="1541" y="46" class="st2" width="23" height="89"/>
<rect x="1566" y="46" class="st18" width="23" height="89"/>
<rect x="1591" y="46" class="st12" width="23" height="89"/>
<rect x="1641" y="46" class="st14" width="23" height="89"/>
<rect x="1666" y="46" class="st7" width="23" height="89"/>
<rect x="1691" y="46" class="st4" width="23" height="89"/>
<rect x="1716" y="46" class="st3" width="23" height="89"/>
<rect x="1766" y="46" class="st13" width="23" height="89"/>
<rect x="1791" y="46" class="st21" width="23" height="89"/>
<rect x="1816" y="46" class="st8" width="23" height="89"/>
<rect x="1841" y="46" class="st6" width="23" height="89"/>
<rect x="1265" y="165" class="st7" width="23" height="89"/>
<rect x="1727" y="165" class="st4" width="23" height="89"/>
<rect x="1784" y="165" class="st13" width="23" height="89"/>
<rect x="1299" y="165" class="st9" width="23" height="89"/>
<rect x="1330" y="166" class="st21" width="23" height="89"/>
<rect x="1355" y="165" class="st14" width="23" height="89"/>
<rect x="1380" y="165" class="st19" width="23" height="89"/>
<rect x="1405" y="165" class="st17" width="23" height="89"/>
<rect x="1430" y="165" class="st12" width="23" height="89"/>
<rect x="1500" y="165" class="st6" width="23" height="89"/>
<rect x="1524" y="165" class="st23" width="23" height="89"/>
<rect x="1580" y="165" class="st20" width="23" height="89"/>
<rect x="1605" y="165" class="st8" width="23" height="89"/>
<rect x="1702" y="165" class="st10" width="23" height="89"/>
<rect x="1755" y="165" class="st9" width="23" height="89"/>
<rect x="1833" y="164" class="st15" width="23" height="89"/>
<rect x="1292" y="281" class="st6" width="23" height="89"/>
<rect x="1317" y="281" class="st14" width="23" height="89"/>
<rect x="1342" y="281" class="st8" width="23" height="89"/>
<rect x="1367" y="281" class="st20" width="23" height="89"/>
<rect x="1442" y="281" class="st10" width="23" height="89"/>
<rect x="1467" y="281" class="st15" width="23" height="89"/>
<rect x="1492" y="281" class="st3" width="23" height="89"/>
<rect x="1517" y="281" class="st13" width="23" height="89"/>
<rect x="1592" y="281" class="st4" width="23" height="89"/>
<rect x="1617" y="281" class="st23" width="23" height="89"/>
<rect x="1642" y="281" class="st14" width="23" height="89"/>
<rect x="1667" y="281" class="st21" width="23" height="89"/>
<rect x="1717" y="281" class="st7" width="23" height="89"/>
<rect x="1742" y="281" class="st12" width="23" height="89"/>
<rect x="1767" y="281" class="st17" width="23" height="89"/>
<rect x="1817" y="281" class="st6" width="23" height="89"/>
<rect x="1842" y="281" class="st14" width="23" height="89"/>
<rect x="1216" y="281" class="st11" width="23" height="89"/>
</svg>
