<?xml version="1.0" encoding="utf-8"?>
<!-- Generator: Adobe Illustrator 23.0.1, SVG Export Plug-In . SVG Version: 6.00 Build 0)  -->
<svg version="1.1" id="Layer_1" xmlns="http://www.w3.org/2000/svg" xmlns:xlink="http://www.w3.org/1999/xlink" x="0px" y="0px"
	 viewBox="0 0 200 300" style="enable-background:new 0 0 200 300;" xml:space="preserve">
<style type="text/css">
	.st0{fill:#0811B7;}
	.st1{fill:none;stroke:#000000;stroke-width:0.3789;stroke-miterlimit:10;}
	.st2{fill:#FFFFFF;}
	.st3{font-family:'MyriadPro-Regular';}
	.st4{font-size:23.6443px;}
	.st5{font-size:13.7017px;}
</style>
<g id="XMLID_1_">
	<g>
		<polygon class="st0" points="193.38,259.61 30.75,270.06 30.75,19.99 193.68,30.46 193.68,259.59 		"/>
		<polygon class="st0" points="30.75,19.99 30.75,270.06 20.65,277.63 20.65,23.78 		"/>
	</g>
	<g>
		<polyline class="st1" points="30.75,19.99 193.68,30.46 193.68,259.59 193.38,259.61 30.75,270.06 		"/>
		<polygon class="st1" points="30.75,19.99 20.65,23.78 20.65,277.63 30.75,270.06 		"/>
		<path class="st1" d="M20.65,277.63c56.34-3.97,112.67-7.94,169.01-11.91c1.24-2.05,2.48-4.07,3.73-6.11
			c0.03-0.06,0.08-0.14,0.11-0.2"/>
	</g>
</g>
<text transform="matrix(0.9331 3.013816e-03 0.3062 0.952 41.7034 79.0333)" class="st2 st3 st4">The Little Prince</text>
<text transform="matrix(0.9071 0 0.3453 0.9385 49.4265 108.7901)" class="st2 st3 st5">Antoine de Saint-Exupery</text>
</svg>
