<?xml version="1.0" encoding="utf-8"?>
<!-- Generator: Adobe Illustrator 23.0.1, SVG Export Plug-In . SVG Version: 6.00 Build 0)  -->
<svg version="1.1" id="Layer_1" xmlns="http://www.w3.org/2000/svg" xmlns:xlink="http://www.w3.org/1999/xlink" x="0px" y="0px"
	 viewBox="0 0 200 300" style="enable-background:new 0 0 200 300;" xml:space="preserve">
<style type="text/css">
	.st0{fill:#FF321D;}
	.st1{fill:none;stroke:#000000;stroke-width:0.3789;stroke-miterlimit:10;}
	.st2{font-family:'MyriadPro-Regular';}
	.st3{font-size:21.2522px;}
	.st4{font-size:14.9289px;}
</style>
<g id="XMLID_1_">
	<g>
		<polygon class="st0" points="193.29,259.61 30.66,270.06 30.66,19.99 193.58,30.46 193.58,259.59 		"/>
		<polygon class="st0" points="30.66,19.99 30.66,270.06 20.56,277.63 20.56,23.78 		"/>
	</g>
	<g>
		<polyline class="st1" points="30.66,19.99 193.58,30.46 193.58,259.59 193.29,259.61 30.66,270.06 		"/>
		<polygon class="st1" points="30.66,19.99 20.56,23.78 20.56,277.63 30.66,270.06 		"/>
		<path class="st1" d="M20.56,277.63c56.34-3.97,112.67-7.94,169.01-11.91c1.24-2.05,2.48-4.07,3.73-6.11
			c0.03-0.06,0.08-0.14,0.11-0.2"/>
	</g>
</g>
<text transform="matrix(0.9749 0 0.2226 0.9749 46.6323 76.6992)" class="st2 st3">The Elementals</text>
<text transform="matrix(0.9576 0 0.2881 0.9576 58.8854 112.6606)" class="st2 st4">Michael McDowell</text>
</svg>
