<?xml version="1.0" encoding="utf-8"?>
<!-- Generator: Adobe Illustrator 23.0.1, SVG Export Plug-In . SVG Version: 6.00 Build 0)  -->
<svg version="1.1" id="Layer_1" xmlns="http://www.w3.org/2000/svg" xmlns:xlink="http://www.w3.org/1999/xlink" x="0px" y="0px"
	 viewBox="0 0 200 300" style="enable-background:new 0 0 200 300;" xml:space="preserve">
<style type="text/css">
	.st0{fill:#8E5F00;}
	.st1{fill:none;stroke:#000000;stroke-width:0.3789;stroke-miterlimit:10;}
	.st2{font-family:'MyriadPro-Regular';}
	.st3{font-size:32.4095px;}
	.st4{font-size:20.217px;}
</style>
<g id="XMLID_1_">
	<g>
		<polygon class="st0" points="193.38,259.61 30.75,270.06 30.75,19.99 193.68,30.46 193.68,259.59 		"/>
		<polygon class="st0" points="30.75,19.99 30.75,270.06 20.65,277.63 20.65,23.78 		"/>
	</g>
	<g>
		<polyline class="st1" points="30.75,19.99 193.68,30.46 193.68,259.59 193.38,259.61 30.75,270.06 		"/>
		<polygon class="st1" points="30.75,19.99 20.65,23.78 20.65,277.63 30.75,270.06 		"/>
		<path class="st1" d="M20.65,277.63c56.34-3.97,112.67-7.94,169.01-11.91c1.24-2.05,2.48-4.07,3.73-6.11
			c0.03-0.06,0.08-0.14,0.11-0.2"/>
	</g>
</g>
<text transform="matrix(0.8636 0 0.1049 0.9945 47.8263 86.5095)" class="st2 st3">The Hobbit</text>
<text transform="matrix(1.0145 0 0.1612 0.9869 67.1217 121.2848)" class="st2 st4">JRR Tolkein</text>
</svg>
